<?xml version="1.0" encoding="utf-8"?>
<svg height="100px" width="100px" fill="#000000" version="1.0" x="0px" y="0px" viewBox="0 0 100 100" enable-background="new 0 0 100 100" xmlns="http://www.w3.org/2000/svg">
  <defs>
    <linearGradient gradientUnits="userSpaceOnUse" x1="49.22" y1="26.26" x2="49.22" y2="40.038" id="gradient-0">
      <stop offset="0" style="stop-color: rgba(36, 164, 100, 1)"/>
      <stop offset="1" style="stop-color: rgba(18, 80, 49, 1)"/>
    </linearGradient>
    <linearGradient gradientUnits="userSpaceOnUse" x1="50" y1="4.938" x2="50" y2="94.939" id="gradient-1">
      <stop offset="0" style="stop-color: rgba(36, 164, 100, 1)"/>
      <stop offset="1" style="stop-color: rgba(18, 80, 49, 1)"/>
    </linearGradient>
  </defs>
  <path d="M81.8194809,18.119379C73.3197098,9.6196127,62.0194664,4.9381957,50.0003281,4.9381957  c-24.8129673,0-45.0003319,20.1873627-45.0003319,45.0003319S25.1873608,94.938858,50.0003281,94.938858  S95,74.7514954,95,49.9385262C95.0006638,37.9193916,90.3192444,26.6191463,81.8194809,18.119379z M50.0003281,9.0203161  c10.9288445,0,21.2039108,4.256196,28.9329605,11.9852514c7.7283936,7.7290535,11.9845886,18.004118,11.9845886,28.9329586  c0,0.5584373-0.0200119,1.1120529-0.0422745,1.6650085H75.5164108v30.2880211  c-1.7191544,1.375824-3.5504303,2.6149445-5.4792099,3.7030716V43.9495583H28.4019318v40.7203865  c-1.6217365-1.0122299-3.1688938-2.1319199-4.6287632-3.3541031v-29.712307H9.1243916  c-0.0222578-0.5529556-0.0422735-1.1065712-0.0422735-1.6650085C9.082118,27.3759079,27.4377098,9.0203161,50.0003281,9.0203161z   M63.7465935,88.4743423c-1.9756165,0.7067642-4.0216599,1.2615433-6.1231804,1.6593552V51.433445h6.1231804V88.4743423z   M41.8051949,90.0312119c-2.1046791-0.4295349-4.1487274-1.0255127-6.1231842-1.7654953V51.433445h6.1231842V90.0312119z   M46.5676689,90.7019348V51.433445h6.1231804v39.3251305c-0.8904724,0.058136-1.7856789,0.0981674-2.6905212,0.0981674  C48.8432655,90.8567429,47.7006493,90.796608,46.5676689,90.7019348z" style="fill: url(#gradient-1);"/>
  <polygon points="73.3721161,35.445137 49.3206406,26.2603664 25.0671024,35.445137 25.0671024,40.0375252 73.3721161,40.0375252 " style="fill-rule: nonzero; fill: url(#gradient-0);"/>
</svg>